<?xml version="1.0" standalone="no"?><!DOCTYPE svg PUBLIC "-//W3C//DTD SVG 1.1//EN" "http://www.w3.org/Graphics/SVG/1.1/DTD/svg11.dtd"><svg t="1691513314201" class="icon" viewBox="0 0 1024 1024" version="1.1" xmlns="http://www.w3.org/2000/svg" p-id="4003" xmlns:xlink="http://www.w3.org/1999/xlink" width="200" height="200"><path d="M389.26309 0A389.064142 389.064142 0 0 1 696.418991 627.695024l324.561403 324.561402a10.23853 10.23853 0 0 1 0 14.480207l-54.117945 54.117944a10.23853 10.23853 0 0 1-14.480207 0L627.893972 696.293175A389.064142 389.064142 0 1 1 389.26309 0zM182.95671 595.297389a289.531003 289.531003 0 0 0 206.233248 85.564859 289.531003 289.531003 0 0 0 206.379512-85.564859A289.531003 289.531003 0 0 0 681.061196 389.064142a289.531003 289.531003 0 0 0-85.564858-206.306381A289.531003 289.531003 0 0 0 389.26309 97.266035a289.531003 289.531003 0 0 0-206.30638 85.491726 289.531003 289.531003 0 0 0-85.491726 206.233248c0 78.032225 30.349928 151.38398 85.491726 206.379513z" fill="#989898" p-id="4004"></path></svg>