<svg width="281" height="393" viewBox="0 0 281 393" fill="none" xmlns="http://www.w3.org/2000/svg">
<path d="M34.9735 14.15C32.8735 13 30.7235 12.05 28.5235 11.3C26.3735 10.55 24.3485 10.175 22.4485 10.175C20.0985 10.175 18.2485 10.65 16.8985 11.6C15.5485 12.55 14.8735 13.975 14.8735 15.875C14.8735 17.175 15.3735 18.35 16.3735 19.4C17.4235 20.4 18.7485 21.3 20.3485 22.1C21.9985 22.9 23.6985 23.625 25.4485 24.275C27.0485 24.875 28.6235 25.6 30.1735 26.45C31.7735 27.25 33.1985 28.275 34.4485 29.525C35.6985 30.725 36.6985 32.25 37.4485 34.1C38.1985 35.9 38.5735 38.125 38.5735 40.775C38.5735 43.575 37.8485 46.175 36.3985 48.575C34.9485 50.975 32.8235 52.925 30.0235 54.425C27.2235 55.875 23.7735 56.6 19.6735 56.6C17.5735 56.6 15.4235 56.4 13.2235 56C11.0735 55.55 8.94854 54.9 6.84854 54.05C4.74854 53.15 2.72354 52.025 0.773535 50.675L5.57354 42.2C6.87354 43.15 8.27354 44 9.77354 44.75C11.3235 45.45 12.8735 46 14.4235 46.4C15.9735 46.8 17.3985 47 18.6985 47C19.9985 47 21.2985 46.825 22.5985 46.475C23.9485 46.075 25.0485 45.425 25.8985 44.525C26.7985 43.625 27.2485 42.375 27.2485 40.775C27.2485 39.675 26.8735 38.675 26.1235 37.775C25.4235 36.875 24.4485 36.05 23.1985 35.3C21.9985 34.55 20.6735 33.9 19.2235 33.35C17.5235 32.7 15.7735 31.95 13.9735 31.1C12.1735 30.25 10.4735 29.225 8.87354 28.025C7.32354 26.775 6.04854 25.25 5.04854 23.45C4.09854 21.6 3.62354 19.35 3.62354 16.7C3.62354 13.5 4.32354 10.725 5.72354 8.375C7.17354 6.025 9.19854 4.175 11.7985 2.825C14.3985 1.425 17.3985 0.649997 20.7985 0.499999C25.2485 0.499999 28.8485 1.025 31.5985 2.075C34.3985 3.125 36.8985 4.375 39.0985 5.825L34.9735 14.15ZM58.0741 57.575C55.1241 57.575 52.6491 56.675 50.6491 54.875C48.6491 53.025 47.5991 50.65 47.4991 47.75V23.225H57.9991V43.85C58.0991 45.3 58.4741 46.475 59.1241 47.375C59.7741 48.225 60.8741 48.65 62.4241 48.65C63.9741 48.65 65.2991 48.125 66.3991 47.075C67.5491 46.025 68.4241 44.6 69.0241 42.8C69.6741 40.95 69.9991 38.875 69.9991 36.575V23.225H80.4991V56H70.9741L70.1491 50L70.2991 50.675C69.5491 52.025 68.5991 53.225 67.4491 54.275C66.2991 55.325 64.9241 56.125 63.3241 56.675C61.7741 57.275 60.0241 57.575 58.0741 57.575ZM111.848 56.9C109.898 56.9 107.973 56.55 106.073 55.85C104.223 55.1 102.673 54.05 101.423 52.7L101.723 49.625V71.75H91.2979V22.475H100.298L101.798 28.85L100.973 26.6C102.673 25.15 104.573 23.95 106.673 23C108.773 22.05 111.198 21.575 113.948 21.575C116.998 21.575 119.723 22.3 122.123 23.75C124.523 25.15 126.398 27.2 127.748 29.9C129.148 32.55 129.848 35.75 129.848 39.5C129.848 43.2 129.073 46.35 127.523 48.95C125.973 51.55 123.848 53.525 121.148 54.875C118.448 56.225 115.348 56.9 111.848 56.9ZM109.748 48.65C111.448 48.65 112.998 48.275 114.398 47.525C115.848 46.775 116.998 45.725 117.848 44.375C118.748 42.975 119.198 41.4 119.198 39.65C119.198 37.8 118.798 36.2 117.998 34.85C117.248 33.45 116.198 32.375 114.848 31.625C113.548 30.825 112.098 30.425 110.498 30.425C109.098 30.425 107.848 30.625 106.748 31.025C105.698 31.375 104.748 31.925 103.898 32.675C103.098 33.375 102.398 34.275 101.798 35.375V43.4C102.198 44.45 102.773 45.375 103.523 46.175C104.273 46.975 105.173 47.6 106.223 48.05C107.323 48.45 108.498 48.65 109.748 48.65ZM158.65 56.9C156.7 56.9 154.775 56.55 152.875 55.85C151.025 55.1 149.475 54.05 148.225 52.7L148.525 49.625V71.75H138.1V22.475H147.1L148.6 28.85L147.775 26.6C149.475 25.15 151.375 23.95 153.475 23C155.575 22.05 158 21.575 160.75 21.575C163.8 21.575 166.525 22.3 168.925 23.75C171.325 25.15 173.2 27.2 174.55 29.9C175.95 32.55 176.65 35.75 176.65 39.5C176.65 43.2 175.875 46.35 174.325 48.95C172.775 51.55 170.65 53.525 167.95 54.875C165.25 56.225 162.15 56.9 158.65 56.9ZM156.55 48.65C158.25 48.65 159.8 48.275 161.2 47.525C162.65 46.775 163.8 45.725 164.65 44.375C165.55 42.975 166 41.4 166 39.65C166 37.8 165.6 36.2 164.8 34.85C164.05 33.45 163 32.375 161.65 31.625C160.35 30.825 158.9 30.425 157.3 30.425C155.9 30.425 154.65 30.625 153.55 31.025C152.5 31.375 151.55 31.925 150.7 32.675C149.9 33.375 149.2 34.275 148.6 35.375V43.4C149 44.45 149.575 45.375 150.325 46.175C151.075 46.975 151.975 47.6 153.025 48.05C154.125 48.45 155.3 48.65 156.55 48.65ZM182.351 39.2C182.351 35.85 183.126 32.85 184.676 30.2C186.276 27.55 188.501 25.475 191.351 23.975C194.201 22.425 197.476 21.65 201.176 21.65C204.926 21.65 208.176 22.425 210.926 23.975C213.676 25.475 215.776 27.55 217.226 30.2C218.726 32.85 219.476 35.85 219.476 39.2C219.476 42.55 218.726 45.575 217.226 48.275C215.776 50.925 213.676 53.025 210.926 54.575C208.176 56.125 204.876 56.9 201.026 56.9C197.426 56.9 194.201 56.2 191.351 54.8C188.551 53.4 186.351 51.375 184.751 48.725C183.151 46.075 182.351 42.9 182.351 39.2ZM192.926 39.275C192.926 40.975 193.276 42.525 193.976 43.925C194.676 45.275 195.626 46.35 196.826 47.15C198.026 47.95 199.376 48.35 200.876 48.35C202.526 48.35 203.951 47.95 205.151 47.15C206.351 46.35 207.276 45.275 207.926 43.925C208.576 42.525 208.901 40.975 208.901 39.275C208.901 37.525 208.576 35.975 207.926 34.625C207.276 33.275 206.351 32.2 205.151 31.4C203.951 30.6 202.526 30.2 200.876 30.2C199.376 30.2 198.026 30.6 196.826 31.4C195.626 32.2 194.676 33.275 193.976 34.625C193.276 35.975 192.926 37.525 192.926 39.275ZM169.88 389.075C168.43 390.225 166.605 391.15 164.405 391.85C162.255 392.55 160.13 392.9 158.03 392.9C154.28 392.9 151.005 392.225 148.205 390.875C145.455 389.475 143.305 387.5 141.755 384.95C140.255 382.35 139.505 379.225 139.505 375.575C139.505 371.925 140.33 368.825 141.98 366.275C143.63 363.675 145.78 361.7 148.43 360.35C151.13 359 153.955 358.325 156.905 358.325C159.855 358.325 162.405 358.725 164.555 359.525C166.755 360.325 168.63 361.375 170.18 362.675L165.08 369.425C164.38 368.875 163.405 368.325 162.155 367.775C160.955 367.175 159.53 366.875 157.88 366.875C156.43 366.875 155.105 367.25 153.905 368C152.705 368.75 151.755 369.775 151.055 371.075C150.355 372.375 150.005 373.875 150.005 375.575C150.005 377.175 150.38 378.65 151.13 380C151.88 381.35 152.905 382.425 154.205 383.225C155.555 383.975 157.13 384.35 158.93 384.35C160.08 384.35 161.13 384.2 162.08 383.9C163.08 383.55 163.93 383.075 164.63 382.475L169.88 389.075ZM177.943 392V332.825H188.218V365.825L188.143 364.55C189.293 362.5 190.918 360.85 193.018 359.6C195.118 358.3 197.693 357.65 200.743 357.65C203.843 357.65 206.418 358.575 208.468 360.425C210.568 362.225 211.643 364.575 211.693 367.475V392H201.193V371.375C201.143 369.925 200.743 368.775 199.993 367.925C199.293 367.025 198.093 366.575 196.393 366.575C194.793 366.575 193.393 367.1 192.193 368.15C190.993 369.2 190.068 370.625 189.418 372.425C188.768 374.225 188.443 376.3 188.443 378.65V392H177.943Z" fill="#4E7761"/>
<path d="M237.198 23.225L238.173 32.225L237.948 30.875C238.898 28.925 240.198 27.275 241.848 25.925C243.498 24.525 245.123 23.45 246.723 22.7C248.373 21.95 249.623 21.575 250.473 21.575L249.948 32.075C247.498 31.775 245.398 32.175 243.648 33.275C241.898 34.375 240.548 35.825 239.598 37.625C238.648 39.425 238.173 41.275 238.173 43.175V56H227.748V23.225H237.198ZM261.585 8.825H272.085V23.075H280.035V31.25H272.085V56H261.585V31.25H256.485V23.075H261.585V8.825ZM141.977 110C143.177 108.8 144.352 107.625 145.502 106.475C146.702 105.325 147.902 104.125 149.102 102.875C149.952 103.725 150.802 104.625 151.652 105.575C152.552 106.525 153.427 107.425 154.277 108.275C153.127 109.425 151.952 110.6 150.752 111.8C149.602 112.95 148.477 114.125 147.377 115.325C148.577 116.525 149.752 117.725 150.902 118.925C152.052 120.125 153.252 121.35 154.502 122.6L148.952 128C147.802 126.8 146.602 125.625 145.352 124.475C144.152 123.275 142.927 122.075 141.677 120.875C140.577 122.025 139.427 123.2 138.227 124.4C137.027 125.55 135.852 126.725 134.702 127.925C133.802 127.025 132.902 126.15 132.002 125.3C131.102 124.4 130.227 123.5 129.377 122.6C130.577 121.4 131.752 120.225 132.902 119.075C134.102 117.925 135.302 116.725 136.502 115.475L129.227 108.275L134.627 102.725L141.977 110ZM45.6487 168.8C51.3987 168.8 55.9737 169.975 59.3737 172.325C62.7737 174.625 64.4737 178.075 64.4737 182.675C64.4737 186.075 63.6237 188.925 61.9237 191.225C60.2737 193.475 57.9987 195.175 55.0987 196.325C52.2487 197.425 48.9737 197.975 45.2737 197.975L43.5487 192.125C48.0987 192.125 52.1237 192.75 55.6237 194C59.1737 195.25 61.9737 197.05 64.0237 199.4C66.0737 201.7 67.0987 204.475 67.0987 207.725C67.0987 210.725 66.5487 213.275 65.4487 215.375C64.3987 217.425 62.9487 219.1 61.0987 220.4C59.2987 221.65 57.2487 222.575 54.9487 223.175C52.6487 223.725 50.2737 224 47.8237 224H29.4487V168.8H45.6487ZM46.9237 191.375C49.0737 191.375 50.6487 190.725 51.6487 189.425C52.6987 188.125 53.2237 186.65 53.2237 185C53.2237 183.1 52.5737 181.675 51.2737 180.725C50.0237 179.775 48.3237 179.3 46.1737 179.3H40.3237V191.375H46.9237ZM47.2987 213.875C48.8987 213.875 50.3487 213.675 51.6487 213.275C52.9487 212.825 53.9737 212.15 54.7237 211.25C55.4737 210.3 55.8487 209.125 55.8487 207.725C55.8487 206.125 55.3987 204.925 54.4987 204.125C53.5987 203.275 52.4237 202.7 50.9737 202.4C49.5737 202.05 48.0987 201.875 46.5487 201.875H40.3237V213.875H47.2987ZM141.708 224.9C138.658 224.9 135.933 224.2 133.533 222.8C131.133 221.35 129.233 219.275 127.833 216.575C126.483 213.875 125.808 210.675 125.808 206.975C125.808 203.275 126.558 200.125 128.058 197.525C129.558 194.925 131.608 192.95 134.208 191.6C136.808 190.25 139.758 189.575 143.058 189.575C145.158 189.575 147.158 189.9 149.058 190.55C151.008 191.2 152.633 192.2 153.933 193.55V196.85V164.825H164.358V224H153.858V217.625L154.683 219.875C152.983 221.275 151.083 222.475 148.983 223.475C146.883 224.425 144.458 224.9 141.708 224.9ZM145.158 216.05C146.558 216.05 147.783 215.875 148.833 215.525C149.933 215.125 150.883 214.575 151.683 213.875C152.533 213.125 153.258 212.2 153.858 211.1V203.075C153.458 201.975 152.833 201.05 151.983 200.3C151.183 199.5 150.183 198.9 148.983 198.5C147.833 198.05 146.558 197.825 145.158 197.825C143.608 197.825 142.158 198.225 140.808 199.025C139.508 199.775 138.458 200.825 137.658 202.175C136.858 203.525 136.458 205.075 136.458 206.825C136.458 208.575 136.858 210.15 137.658 211.55C138.458 212.95 139.508 214.05 140.808 214.85C142.158 215.65 143.608 216.05 145.158 216.05ZM192.11 240.5C189.16 240.5 186.66 240.15 184.61 239.45C182.61 238.75 180.91 237.9 179.51 236.9C178.11 235.9 176.86 234.95 175.76 234.05L181.91 226.85C183.06 227.9 184.385 228.9 185.885 229.85C187.435 230.85 189.46 231.35 191.96 231.35C193.61 231.35 195.135 231.05 196.535 230.45C197.985 229.9 199.135 229.075 199.985 227.975C200.885 226.875 201.335 225.5 201.335 223.85V216.65L201.71 218.525C200.91 220.225 199.46 221.725 197.36 223.025C195.26 224.275 192.51 224.9 189.11 224.9C186.16 224.9 183.41 224.15 180.86 222.65C178.36 221.1 176.36 219.025 174.86 216.425C173.36 213.775 172.61 210.775 172.61 207.425C172.61 203.975 173.41 200.925 175.01 198.275C176.61 195.575 178.685 193.45 181.235 191.9C183.785 190.35 186.485 189.575 189.335 189.575C192.185 189.575 194.635 190 196.685 190.85C198.785 191.65 200.36 192.65 201.41 193.85L201.035 194.825L202.16 191.225H211.835V224C211.835 227.2 210.935 230.025 209.135 232.475C207.335 234.975 204.935 236.925 201.935 238.325C198.985 239.775 195.71 240.5 192.11 240.5ZM183.185 207.125C183.185 208.875 183.585 210.45 184.385 211.85C185.185 213.25 186.26 214.35 187.61 215.15C189.01 215.95 190.56 216.35 192.26 216.35C193.71 216.35 194.985 216.175 196.085 215.825C197.235 215.425 198.235 214.875 199.085 214.175C199.985 213.425 200.735 212.5 201.335 211.4V203.375C200.885 202.275 200.21 201.35 199.31 200.6C198.41 199.8 197.36 199.2 196.16 198.8C195.01 198.35 193.71 198.125 192.26 198.125C190.56 198.125 189.01 198.525 187.61 199.325C186.26 200.075 185.185 201.125 184.385 202.475C183.585 203.825 183.185 205.375 183.185 207.125ZM238.746 224.9C234.746 224.9 231.346 224.15 228.546 222.65C225.796 221.15 223.696 219.075 222.246 216.425C220.796 213.775 220.071 210.725 220.071 207.275C220.071 203.975 220.921 201 222.621 198.35C224.321 195.7 226.596 193.6 229.446 192.05C232.296 190.45 235.471 189.65 238.971 189.65C243.671 189.65 247.521 191.025 250.521 193.775C253.571 196.475 255.546 200.4 256.446 205.55L230.946 213.65L228.621 207.95L247.071 201.725L244.896 202.7C244.496 201.4 243.771 200.275 242.721 199.325C241.721 198.325 240.196 197.825 238.146 197.825C236.596 197.825 235.221 198.2 234.021 198.95C232.871 199.65 231.971 200.675 231.321 202.025C230.721 203.325 230.421 204.875 230.421 206.675C230.421 208.725 230.796 210.45 231.546 211.85C232.296 213.2 233.321 214.225 234.621 214.925C235.921 215.625 237.371 215.975 238.971 215.975C240.121 215.975 241.221 215.775 242.271 215.375C243.371 214.975 244.446 214.45 245.496 213.8L250.146 221.6C248.396 222.6 246.496 223.4 244.446 224C242.446 224.6 240.546 224.9 238.746 224.9ZM141.977 278C143.177 276.8 144.352 275.625 145.502 274.475C146.702 273.325 147.902 272.125 149.102 270.875C149.952 271.725 150.802 272.625 151.652 273.575C152.552 274.525 153.427 275.425 154.277 276.275C153.127 277.425 151.952 278.6 150.752 279.8C149.602 280.95 148.477 282.125 147.377 283.325C148.577 284.525 149.752 285.725 150.902 286.925C152.052 288.125 153.252 289.35 154.502 290.6L148.952 296C147.802 294.8 146.602 293.625 145.352 292.475C144.152 291.275 142.927 290.075 141.677 288.875C140.577 290.025 139.427 291.2 138.227 292.4C137.027 293.55 135.852 294.725 134.702 295.925C133.802 295.025 132.902 294.15 132.002 293.3C131.102 292.4 130.227 291.5 129.377 290.6C130.577 289.4 131.752 288.225 132.902 287.075C134.102 285.925 135.302 284.725 136.502 283.475L129.227 276.275L134.627 270.725L141.977 278ZM87.7753 336.8C91.2253 336.8 94.3003 337.25 97.0003 338.15C99.7003 339 101.95 340.25 103.75 341.9C105.6 343.5 107 345.45 107.95 347.75C108.9 350 109.375 352.55 109.375 355.4C109.375 357.65 109.025 359.9 108.325 362.15C107.675 364.4 106.575 366.45 105.025 368.3C103.525 370.15 101.525 371.65 99.0253 372.8C96.5253 373.9 93.4253 374.45 89.7253 374.45H81.9253V392H71.0503V336.8H87.7753ZM89.6503 363.95C91.3003 363.95 92.6753 363.675 93.7753 363.125C94.8753 362.575 95.7253 361.875 96.3253 361.025C96.9753 360.175 97.4253 359.3 97.6753 358.4C97.9753 357.45 98.1253 356.575 98.1253 355.775C98.1253 355.175 98.0253 354.425 97.8253 353.525C97.6753 352.575 97.3253 351.625 96.7753 350.675C96.2253 349.725 95.3753 348.925 94.2253 348.275C93.1253 347.625 91.6253 347.3 89.7253 347.3H81.9253V363.95H89.6503ZM99.8503 370.7L113.5 392H100.825L86.8753 371L99.8503 370.7ZM120.741 359.225H131.241V392H120.741V359.225ZM120.516 347.6C120.516 346.05 121.116 344.775 122.316 343.775C123.566 342.775 124.891 342.275 126.291 342.275C127.691 342.275 128.966 342.775 130.116 343.775C131.316 344.775 131.916 346.05 131.916 347.6C131.916 349.15 131.316 350.425 130.116 351.425C128.966 352.375 127.691 352.85 126.291 352.85C124.891 352.85 123.566 352.375 122.316 351.425C121.116 350.425 120.516 349.15 120.516 347.6Z" fill="#A7BFB2"/>
<path d="M85.7333 191.225L86.7083 200.225L86.4833 198.875C87.4333 196.925 88.7333 195.275 90.3833 193.925C92.0333 192.525 93.6583 191.45 95.2583 190.7C96.9083 189.95 98.1583 189.575 99.0083 189.575L98.4833 200.075C96.0333 199.775 93.9333 200.175 92.1833 201.275C90.4333 202.375 89.0833 203.825 88.1333 205.625C87.1833 207.425 86.7083 209.275 86.7083 211.175V224H76.2833V191.225H85.7333ZM107.045 191.225H117.545V224H107.045V191.225ZM106.82 179.6C106.82 178.05 107.42 176.775 108.62 175.775C109.87 174.775 111.195 174.275 112.595 174.275C113.995 174.275 115.27 174.775 116.42 175.775C117.62 176.775 118.22 178.05 118.22 179.6C118.22 181.15 117.62 182.425 116.42 183.425C115.27 184.375 113.995 184.85 112.595 184.85C111.195 184.85 109.87 184.375 108.62 183.425C107.42 182.425 106.82 181.15 106.82 179.6Z" fill="#4E7761"/>
</svg>
